<svg width="20" height="20" viewBox="0 0 20 20" fill="none" xmlns="http://www.w3.org/2000/svg">
<path d="M2.721 2.05089L18.076 9.61689C18.1597 9.65815 18.2302 9.72203 18.2795 9.80129C18.3289 9.88056 18.355 9.97204 18.355 10.0654C18.355 10.1587 18.3289 10.2502 18.2795 10.3295C18.2302 10.4087 18.1597 10.4726 18.076 10.5139L2.72 18.0799C2.63397 18.1221 2.53761 18.1388 2.44239 18.1278C2.34717 18.1169 2.2571 18.0788 2.18292 18.0181C2.10874 17.9574 2.05357 17.8767 2.02397 17.7855C1.99438 17.6943 1.99161 17.5966 2.016 17.5039L3.537 11.7589C3.56165 11.6659 3.6126 11.582 3.68372 11.5173C3.75485 11.4526 3.84313 11.4097 3.938 11.3939L10.819 10.2469C10.86 10.2401 10.8987 10.2232 10.9315 10.1977C10.9643 10.1722 10.9903 10.1389 11.007 10.1009L11.025 10.0409C11.0343 9.98528 11.0246 9.92814 10.9974 9.87876C10.9701 9.82939 10.927 9.79066 10.875 9.76889L10.819 9.75289L3.9 8.59989C3.80531 8.58388 3.71724 8.54095 3.64631 8.47622C3.57538 8.4115 3.52458 8.32771 3.5 8.23489L2.016 2.62789C1.99136 2.53513 1.99393 2.43723 2.02342 2.3459C2.05291 2.25456 2.10806 2.17364 2.18229 2.1128C2.25652 2.05196 2.34669 2.01377 2.44204 2.00279C2.53739 1.99182 2.63388 2.00851 2.72 2.05089H2.721Z" fill="#4270EC"/>
</svg>
