<svg width="32" height="32" viewBox="0 0 32 32" fill="none" xmlns="http://www.w3.org/2000/svg">
<path d="M18.1519 1.81557C18.3513 1.61612 18.4634 1.34561 18.4634 1.06354C18.4634 0.781472 18.3513 0.510957 18.1519 0.311505C17.9524 0.112054 17.6819 3.30022e-06 17.3999 3.28955e-06C17.1178 3.33224e-06 16.8473 0.112054 16.6478 0.311506L13.6397 3.31964C13.0413 3.918 12.7052 4.72954 12.7052 5.57574C12.7052 6.42194 13.0413 7.23349 13.6397 7.83184L13.9555 8.1477L7.12708 10.5843C6.31111 10.8757 5.57872 11.3622 4.99363 12.0013C4.40855 12.6404 3.98849 13.4127 3.77 14.2512L0.0940612 28.3443C-0.0340832 28.8369 -0.0312424 29.3545 0.102299 29.8457C0.235845 30.3369 0.495454 30.7847 0.855392 31.1446C1.21533 31.5046 1.66309 31.7642 2.15429 31.8977C2.64549 32.0312 3.16306 32.0341 3.65569 31.9059L17.7488 28.23C18.5872 28.0112 19.3593 27.5908 19.9982 27.0054C20.637 26.4201 21.1231 25.6875 21.4142 24.8714L23.8523 18.0445L24.1682 18.3603C24.7665 18.9587 25.5781 19.2948 26.4243 19.2948C27.2705 19.2948 28.082 18.9587 28.6804 18.3603L31.6885 15.3522C31.888 15.1527 32 14.8822 32 14.6001C32 14.3181 31.888 14.0476 31.6885 13.8481C31.489 13.6487 31.2185 13.5366 30.9365 13.5366C30.6544 13.5366 30.3839 13.6487 30.1844 13.8481L27.1763 16.8562C26.9768 17.0557 26.7063 17.1677 26.4243 17.1677C26.1422 17.1677 25.8717 17.0557 25.6722 16.8562L15.1438 6.32777C14.9443 6.12832 14.8323 5.85781 14.8323 5.57574C14.8323 5.29367 14.9443 5.02316 15.1438 4.82371L18.1519 1.81557ZM22.1888 16.381L19.4108 24.1585C19.2358 24.6476 18.944 25.0866 18.5608 25.4373C18.1776 25.788 17.7145 26.0398 17.2119 26.1709L3.84671 29.6574L12.3372 21.1669C12.7895 21.2881 13.2691 21.2567 13.7017 21.0775C14.1343 20.8983 14.4957 20.5814 14.7298 20.1758C14.9639 19.7703 15.0577 19.2989 14.9966 18.8347C14.9355 18.3704 14.7229 17.9393 14.3918 17.6082C14.0607 17.2771 13.6296 17.0645 13.1653 17.0034C12.7011 16.9423 12.2297 17.0361 11.8242 17.2702C11.4187 17.5043 11.1017 17.8657 10.9225 18.2983C10.7434 18.7309 10.7119 19.2105 10.8331 19.6628L2.34264 28.1533L5.82757 14.7897C5.95866 14.287 6.2105 13.8239 6.56121 13.4407C6.91192 13.0575 7.3509 12.7657 7.84001 12.5907L15.619 9.81119L22.1888 16.381Z" fill="white"/>
</svg>
